<svg width="101" height="101" viewBox="0 0 101 101" fill="none" xmlns="http://www.w3.org/2000/svg">
<path d="M50.5 0.357849C52.3767 0.357849 54.2267 0.459516 56.05 0.66285C56.7027 0.735077 57.3347 0.935148 57.9101 1.25164C58.4854 1.56814 58.9928 1.99486 59.4032 2.50744C59.8137 3.02002 60.1191 3.60842 60.3022 4.23905C60.4852 4.86967 60.5422 5.53018 60.47 6.18285C60.3978 6.83552 60.1977 7.46757 59.8812 8.04292C59.5647 8.61827 59.138 9.12564 58.6254 9.53608C58.1128 9.94651 57.5244 10.252 56.8938 10.435C56.2632 10.618 55.6027 10.6751 54.95 10.6028C46.7102 9.68107 38.3876 11.3425 31.1334 15.3575C23.8791 19.3724 18.0518 25.5423 14.4573 33.0138C10.8629 40.4854 9.67901 48.8892 11.0695 57.063C12.4599 65.2367 16.356 72.7764 22.2187 78.6391C28.0814 84.5019 35.6211 88.3979 43.7949 89.7884C51.9687 91.1788 60.3725 89.995 67.844 86.4005C75.3155 82.8061 81.4855 76.9787 85.5004 69.7245C89.5153 62.4702 91.1768 54.1476 90.255 45.9078C90.1828 45.2552 90.2398 44.5947 90.4228 43.964C90.6059 43.3334 90.9113 42.745 91.3218 42.2324C92.1507 41.1972 93.3569 40.5337 94.675 40.3878C95.9931 40.242 97.3152 40.6257 98.3504 41.4546C98.863 41.8651 99.2897 42.3724 99.6062 42.9478C99.9227 43.5231 100.123 44.1552 100.195 44.8078C100.395 46.6312 100.497 48.4812 100.5 50.3578C100.5 77.9728 78.115 100.358 50.5 100.358C22.885 100.358 0.5 77.9728 0.5 50.3578C0.5 22.7429 22.885 0.357849 50.5 0.357849ZM50.34 29.7428C50.6695 31.0265 50.476 32.3884 49.8019 33.5294C49.1278 34.6704 48.0283 35.4971 46.745 35.8279C43.2194 36.7514 40.1502 38.9262 38.1102 41.9464C36.0702 44.9666 35.1988 48.6258 35.6585 52.2413C36.1182 55.8568 37.8778 59.1815 40.6087 61.5951C43.3396 64.0086 46.8554 65.346 50.5 65.3578C53.8265 65.3592 57.0591 64.2548 59.6894 62.2183C62.3197 60.1818 64.1984 57.3287 65.03 54.1078C65.3844 52.8496 66.2175 51.7802 67.3507 51.1287C68.484 50.4772 69.8274 50.2954 71.093 50.6223C72.3587 50.9492 73.446 51.7587 74.1221 52.8775C74.7981 53.9963 75.0092 55.3354 74.71 56.6078C73.1761 62.4875 69.5542 67.6076 64.5208 71.0117C59.4874 74.4158 53.3868 75.871 47.3588 75.1054C41.3308 74.3398 35.7877 71.4058 31.765 66.8515C27.7424 62.2973 25.5154 56.4343 25.5 50.3578C25.4991 44.8148 27.3405 39.4286 30.7346 35.0462C34.1287 30.6638 38.883 27.5336 44.25 26.1479C44.8859 25.9839 45.5479 25.9469 46.1982 26.0389C46.8484 26.1309 47.4741 26.35 48.0397 26.6839C48.6052 27.0177 49.0994 27.4597 49.4941 27.9845C49.8888 28.5094 50.1763 29.1069 50.34 29.7428ZM83.02 0.99285C83.9326 1.37124 84.7127 2.01153 85.2618 2.8329C85.8108 3.65426 86.1043 4.61987 86.105 5.60785V14.7578H95.25C96.2388 14.7581 97.2052 15.0514 98.0273 15.6008C98.8493 16.1503 99.49 16.9311 99.8684 17.8446C100.247 18.7581 100.346 19.7632 100.153 20.733C99.9601 21.7028 99.484 22.5936 98.785 23.2928L81.1 40.9578C80.1625 41.8956 78.891 42.4226 77.565 42.4229H65.5L56.36 51.5678C55.4218 52.5061 54.1493 53.0331 52.8225 53.0331C51.4957 53.0331 50.2232 52.5061 49.285 51.5678C48.3468 50.6296 47.8197 49.3572 47.8197 48.0303C47.8197 46.7035 48.3468 45.431 49.285 44.4928L58.43 35.3578V23.2878C58.4303 21.9619 58.9573 20.6903 59.895 19.7528L77.57 2.07285C78.2692 1.37319 79.1603 0.896641 80.1304 0.703506C81.1005 0.510371 82.1061 0.609325 83.02 0.987849M76.105 17.6728L68.43 25.3578V32.4278H75.5L83.18 24.7528H81.105C79.7789 24.7528 78.5071 24.2261 77.5695 23.2884C76.6318 22.3507 76.105 21.0789 76.105 19.7528V17.6728Z" fill="#2E2E2E"/>
</svg>
