<svg width="21" height="29" viewBox="0 0 21 29" fill="none" xmlns="http://www.w3.org/2000/svg">
<path d="M10.2168 13.7667C9.2696 13.7667 8.36119 13.3979 7.69142 12.7415C7.02164 12.0852 6.64537 11.1949 6.64537 10.2667C6.64537 9.33842 7.02164 8.44818 7.69142 7.7918C8.36119 7.13542 9.2696 6.76667 10.2168 6.76667C11.164 6.76667 12.0724 7.13542 12.7422 7.7918C13.412 8.44818 13.7882 9.33842 13.7882 10.2667C13.7882 10.7263 13.6958 11.1814 13.5164 11.6061C13.3369 12.0307 13.0738 12.4165 12.7422 12.7415C12.4105 13.0666 12.0168 13.3244 11.5835 13.5003C11.1502 13.6761 10.6858 13.7667 10.2168 13.7667ZM10.2168 0.466675C7.56463 0.466675 5.02109 1.49917 3.14573 3.33703C1.27037 5.17488 0.216797 7.66755 0.216797 10.2667C0.216797 17.6167 10.2168 28.4667 10.2168 28.4667C10.2168 28.4667 20.2168 17.6167 20.2168 10.2667C20.2168 7.66755 19.1632 5.17488 17.2879 3.33703C15.4125 1.49917 12.869 0.466675 10.2168 0.466675Z" fill="white"/>
</svg>
