<svg width="101" height="101" viewBox="0 0 101 101" fill="none" xmlns="http://www.w3.org/2000/svg">
<path fill-rule="evenodd" clip-rule="evenodd" d="M32.0921 69.2767C51.3497 88.5303 69.1948 90.6385 74.4337 90.8338C80.7644 91.0641 87.2253 85.8964 90.02 80.6036C85.5625 75.3758 79.7577 71.3198 73.4019 66.9232C69.6506 70.6688 65.0278 77.6291 58.8724 75.1354C55.3715 73.7283 46.7269 69.7474 39.1741 62.1912C31.6213 54.635 27.6396 45.9971 26.2222 42.5019C23.728 36.3378 30.7098 31.7059 34.4611 27.9553C30.0637 21.4957 26.0769 15.5419 20.8581 11.3106C15.489 14.1148 10.2903 20.5243 10.5257 26.9388C10.721 32.1766 12.8296 50.0181 32.0921 69.2767ZM74.0631 100.844C66.8509 100.578 46.4113 97.754 25.0051 76.3572C3.60396 54.9554 0.78419 34.5251 0.513733 27.3094C0.113056 16.313 8.5373 5.63216 18.2687 1.46097C19.4406 0.955049 20.7239 0.76243 21.9927 0.902013C23.2615 1.0416 24.4722 1.50858 25.506 2.25715C33.5596 8.13088 39.114 17.0291 43.8871 23.9995C44.88 25.4489 45.3349 27.1997 45.173 28.949C45.0111 30.6983 44.2426 32.336 43.0006 33.5787L36.2091 40.3738C37.7867 43.854 40.9972 49.8529 46.2561 55.1107C51.5149 60.3685 57.5151 63.5783 61.001 65.1556L67.7875 58.3655C69.0336 57.1185 70.6788 56.3493 72.435 56.1928C74.1912 56.0363 75.9465 56.5023 77.3937 57.5092C84.5057 62.4366 92.8598 67.9097 98.9501 75.7063C99.7596 76.7473 100.275 77.9867 100.441 79.2948C100.608 80.6029 100.42 81.9317 99.8967 83.1423C95.7046 92.9219 85.0967 101.249 74.0631 100.844Z" fill="#2E2E2E"/>
</svg>
