<svg width="100" height="101" viewBox="0 0 100 101" fill="none" xmlns="http://www.w3.org/2000/svg">
<path d="M14.1214 86.2341C9.70849 81.8204 6.2507 76.7202 3.74807 70.9334C1.24544 65.1466 -0.00391341 59.1636 9.20802e-06 52.9845C0.00393183 46.8053 1.18072 40.7007 3.53036 34.6707C5.88001 28.6406 9.70457 22.9754 15.004 17.6751C18.4363 14.2422 22.6786 11.2998 27.7309 8.84777C32.7833 6.39573 38.7653 4.4596 45.6769 3.03938C52.5886 1.61916 60.4828 0.759966 69.3597 0.461798C78.2366 0.16363 88.1647 0.506914 99.1442 1.49165C99.9287 11.8883 100.174 21.4512 99.8796 30.1805C99.5854 38.9098 98.7754 46.7818 97.4496 53.7966C96.1237 60.8114 94.2605 66.9395 91.8599 72.181C89.4592 77.4224 86.4937 81.8126 82.9634 85.3514C77.7659 90.5497 72.2507 94.3513 66.4178 96.7563C60.5848 99.1612 54.6264 100.362 48.5424 100.358C42.1681 100.358 35.941 99.1063 29.8609 96.6033C23.7809 94.1002 18.5344 90.6438 14.1214 86.2341ZM30.5964 83.8801C33.4403 85.5475 36.3587 86.75 39.3517 87.4876C42.3447 88.2251 45.4082 88.592 48.5424 88.588C53.0534 88.588 57.5154 87.6818 61.9283 85.8692C66.3413 84.0567 70.5581 81.1378 74.5788 77.1125C76.3439 75.347 78.1346 72.8695 79.9508 69.6799C81.767 66.4903 83.336 62.3238 84.6579 57.1804C85.9799 52.037 86.984 45.8088 87.6705 38.4958C88.357 31.1829 88.455 22.4772 87.9647 12.3787C83.1595 12.1825 77.7424 12.11 71.7133 12.161C65.6842 12.212 59.6767 12.6769 53.6908 13.5557C47.7049 14.4345 42.0171 15.8567 36.6274 17.8222C31.2378 19.7878 26.8248 22.485 23.3886 25.914C18.9757 30.3276 15.9356 34.6922 14.2685 39.0078C12.6014 43.3234 11.7679 47.4919 11.7679 51.5132C11.7679 57.3 12.8721 62.3767 15.0805 66.7433C17.2889 71.1099 19.2248 74.174 20.8879 75.9355C25.0067 68.089 30.4493 60.5603 37.2158 53.3493C43.9823 46.1384 51.8766 40.2299 60.8986 35.624C53.8379 41.8032 47.6853 48.7924 42.4408 56.5919C37.1962 64.3913 33.2481 73.4874 30.5964 83.8801Z" fill="#2E2E2E"/>
</svg>
